<?xml version="1.0" standalone="no"?>
<!DOCTYPE svg PUBLIC "-//W3C//DTD SVG 20010904//EN"
 "http://www.w3.org/TR/2001/REC-SVG-20010904/DTD/svg10.dtd">
<svg version="1.0" xmlns="http://www.w3.org/2000/svg"
 width="883.000000pt" height="883.000000pt" viewBox="0 0 883.000000 883.000000"
 preserveAspectRatio="xMidYMid meet">
<metadata>
Created by potrace 1.14, written by Peter Selinger 2001-2017
</metadata>
<g transform="translate(0.000000,883.000000) scale(0.100000,-0.100000)"
fill="#000000" stroke="none">
<path d="M4321 8790 c-35 -21 -69 -44 -74 -49 -6 -6 -19 -11 -28 -11 -10 0
-19 -4 -21 -8 -1 -4 -23 -19 -48 -33 -54 -31 -61 -35 -320 -184 -113 -66 -225
-130 -250 -144 -25 -14 -47 -28 -50 -32 -3 -4 -21 -14 -40 -23 -19 -8 -42 -20
-50 -26 -24 -15 -143 -86 -160 -94 -8 -4 -24 -12 -35 -19 -24 -15 -200 -116
-237 -137 -33 -18 -176 -101 -200 -115 -9 -5 -54 -31 -100 -57 -111 -63 -142
-82 -148 -88 -5 -5 -59 -35 -125 -69 -16 -9 -31 -19 -33 -23 -2 -5 -8 -8 -13
-8 -5 0 -38 -18 -74 -40 -36 -22 -68 -40 -71 -40 -2 0 -17 -8 -32 -19 -15 -10
-58 -36 -97 -57 -38 -22 -94 -54 -125 -71 -30 -18 -91 -53 -135 -78 -44 -25
-87 -50 -95 -55 -58 -36 -173 -100 -181 -100 -5 0 -9 -4 -9 -9 0 -5 -11 -12
-25 -15 -14 -4 -25 -11 -25 -16 0 -6 -5 -10 -10 -10 -9 0 -235 -127 -300 -168
-14 -9 -27 -17 -30 -17 -3 0 -24 -13 -47 -28 -24 -15 -45 -27 -47 -27 -2 0
-40 -21 -83 -46 -43 -26 -94 -56 -113 -67 -203 -114 -225 -137 -195 -201 10
-20 21 -36 26 -36 4 0 73 -38 153 -85 80 -47 150 -85 156 -85 5 0 10 -4 10 -9
0 -5 8 -11 18 -14 9 -3 40 -20 67 -36 132 -80 154 -87 200 -62 17 9 32 18 35
21 3 3 21 13 40 24 66 35 125 69 135 76 6 5 37 23 70 40 33 18 67 39 76 46 8
8 19 14 23 14 4 0 41 20 82 45 40 25 78 45 83 45 5 0 11 3 13 8 2 4 21 16 43
27 22 11 42 22 45 25 3 3 68 42 145 85 77 44 142 82 145 85 3 3 21 13 40 24
48 25 69 37 353 202 137 79 252 144 258 144 5 0 9 5 9 10 0 6 6 10 14 10 7 0
19 7 26 15 7 9 15 13 18 10 3 -3 12 1 21 8 9 8 86 53 171 102 85 49 167 97
183 107 15 11 27 16 27 12 0 -3 15 5 34 20 19 14 37 26 40 26 3 0 27 13 53 29
120 72 199 115 206 113 4 -1 7 1 7 6 0 4 26 21 58 37 31 17 59 33 62 36 3 3
12 8 20 12 8 4 33 18 55 31 22 14 62 37 89 51 81 44 91 50 96 56 3 3 12 9 20
12 8 4 36 19 62 35 78 46 251 146 280 162 14 8 57 33 95 55 37 22 75 43 83 48
8 4 29 16 45 26 17 11 54 32 83 47 28 15 52 31 52 36 0 4 3 7 8 6 9 -3 126 63
130 74 2 4 8 6 13 2 14 -8 38 57 32 86 -4 26 -84 90 -111 90 -6 0 -12 5 -12
10 0 6 -6 10 -14 10 -7 0 -19 7 -26 15 -7 9 -15 14 -17 11 -3 -2 -40 18 -84
45 -44 27 -85 49 -90 49 -5 0 -9 4 -9 8 0 4 -12 13 -27 19 -30 13 -105 55
-113 64 -11 12 -79 39 -97 38 -10 0 -47 -18 -82 -39z"/>
<path d="M5145 8362 c-16 -9 -32 -20 -35 -23 -3 -3 -27 -18 -55 -33 -112 -63
-143 -81 -204 -118 -34 -21 -65 -38 -67 -38 -3 0 -21 -11 -42 -23 -20 -13 -57
-35 -82 -49 -74 -42 -414 -237 -430 -248 -8 -5 -37 -22 -65 -38 -27 -16 -66
-38 -85 -49 -19 -11 -126 -73 -237 -137 -111 -63 -217 -125 -235 -136 -18 -11
-39 -23 -47 -27 -8 -3 -64 -35 -125 -71 -61 -36 -131 -76 -156 -90 -25 -13
-49 -28 -55 -32 -5 -5 -37 -23 -70 -41 -33 -18 -62 -35 -65 -38 -3 -4 -24 -15
-47 -26 -24 -11 -43 -23 -43 -27 0 -5 -6 -8 -14 -8 -7 0 -19 -7 -26 -15 -7 -9
-15 -13 -18 -11 -3 3 -17 -3 -31 -13 -47 -33 -481 -281 -491 -281 -6 0 -10 -4
-10 -8 0 -5 -17 -16 -38 -26 -20 -10 -63 -33 -94 -52 -32 -19 -60 -34 -64 -34
-4 1 -10 -2 -13 -8 -3 -5 -37 -26 -76 -47 -38 -21 -72 -42 -75 -45 -3 -4 -9
-9 -15 -11 -11 -4 -170 -94 -195 -109 -8 -5 -87 -51 -175 -101 -88 -50 -168
-98 -177 -107 -11 -9 -18 -29 -18 -53 0 -31 6 -42 33 -63 19 -15 39 -26 45
-26 7 0 12 -4 12 -10 0 -5 4 -10 9 -10 5 0 49 -23 98 -51 48 -28 102 -59 118
-69 17 -9 85 -49 152 -88 110 -64 123 -69 144 -58 49 26 126 70 188 108 34 21
65 38 67 38 2 0 38 20 80 45 41 25 80 45 85 45 5 0 9 4 9 9 0 5 12 14 28 20
15 6 45 21 67 35 22 13 83 48 135 78 52 30 154 89 227 131 72 42 149 86 170
98 21 12 43 25 48 29 6 4 30 19 55 33 80 44 244 139 275 158 17 10 37 22 45
26 8 4 58 32 110 63 52 31 102 59 110 63 8 4 38 21 65 37 28 17 57 34 65 37 8
4 17 9 20 12 3 3 19 13 35 22 17 9 78 44 138 78 59 34 119 64 135 66 15 2 32
4 37 5 6 1 12 1 15 0 3 -1 19 -4 35 -6 41 -7 96 -53 120 -101 20 -38 20 -57
20 -834 -1 -753 -2 -796 -20 -829 -23 -44 -66 -82 -130 -115 -27 -14 -79 -43
-114 -65 -34 -22 -65 -40 -68 -40 -2 0 -38 -20 -79 -45 -40 -25 -78 -45 -84
-45 -5 0 -10 -4 -10 -10 0 -5 -5 -10 -10 -10 -6 0 -46 -21 -90 -47 -45 -27
-90 -53 -101 -59 -19 -11 -18 -13 18 -35 21 -12 56 -32 78 -44 22 -12 105 -60
185 -106 80 -47 152 -88 160 -92 8 -4 33 -18 55 -32 22 -14 49 -30 60 -36 34
-17 62 -34 77 -47 12 -9 30 -2 93 33 43 25 82 45 87 45 4 0 8 4 8 9 0 5 8 11
18 14 9 4 37 18 62 33 25 15 65 38 90 52 25 14 61 35 80 47 19 12 42 25 50 29
8 4 24 12 35 19 16 10 210 122 330 190 11 6 31 18 45 27 14 9 50 30 80 46 30
16 57 32 60 35 3 4 22 15 42 25 73 37 243 138 250 148 4 6 8 7 8 3 0 -5 12 0
28 11 15 10 34 22 42 25 8 4 29 16 45 27 17 11 44 26 60 35 17 8 44 24 60 34
17 11 46 28 65 39 58 32 113 64 145 83 17 11 37 22 45 26 8 4 43 24 78 45 34
21 67 38 72 38 6 0 10 5 10 12 0 6 3 9 6 6 3 -4 21 4 40 17 19 13 48 30 64 37
17 7 30 16 30 20 0 5 4 8 9 8 13 0 464 261 472 273 3 5 8 7 10 6 4 -3 66 31
149 81 39 24 301 176 410 238 19 10 75 43 123 71 49 28 93 51 98 51 5 0 9 5 9
10 0 6 4 10 10 10 5 0 71 36 146 80 75 44 139 80 141 80 12 0 34 33 39 59 8
37 -13 73 -53 93 -37 19 -77 42 -83 48 -3 3 -23 14 -45 25 -22 11 -42 22 -45
25 -3 3 -52 33 -110 65 -58 33 -113 64 -122 70 -9 5 -44 24 -76 42 l-60 32
-183 -105 c-101 -59 -224 -129 -272 -158 -49 -28 -105 -60 -125 -72 -75 -42
-119 -68 -207 -119 -102 -60 -145 -84 -195 -111 -19 -11 -37 -21 -40 -24 -3
-3 -17 -12 -32 -20 -24 -13 -365 -209 -410 -235 -17 -10 -130 -75 -183 -106
-16 -9 -155 -89 -308 -178 -152 -88 -280 -161 -283 -161 -3 0 -24 -12 -47 -27
-53 -35 -64 -37 -92 -19 l-22 15 0 899 c-1 838 0 902 17 938 20 44 48 73 100
101 117 65 306 178 311 186 3 5 9 8 13 8 12 -2 154 80 181 105 23 22 27 31 21
62 -4 24 -15 44 -33 57 -15 11 -30 19 -33 18 -3 -1 -12 4 -20 11 -14 12 -36
25 -145 86 -22 13 -53 31 -70 41 -16 10 -39 23 -50 29 -11 6 -41 22 -66 38
-177 104 -174 103 -224 74z"/>
<path d="M5680 7763 c-271 -156 -277 -160 -350 -201 -30 -17 -61 -41 -68 -53
-11 -17 -14 -91 -14 -342 l0 -320 24 -23 c33 -33 69 -36 109 -11 19 12 36 21
39 22 3 0 48 26 100 57 52 31 111 65 130 76 19 11 75 43 123 71 49 28 93 51
98 51 5 0 9 3 9 8 0 4 10 12 22 17 l23 10 0 383 c0 211 -2 385 -5 387 -3 2
-111 -57 -240 -132z"/>
<path d="M4194 6904 c-32 -19 -60 -34 -61 -32 -1 2 -11 -5 -22 -14 -11 -9 -22
-14 -25 -11 -3 4 -6 1 -6 -5 0 -7 -4 -12 -8 -12 -8 0 -315 -173 -337 -190 -5
-4 -30 -18 -55 -32 -25 -14 -121 -69 -215 -123 -93 -54 -183 -106 -200 -115
-106 -61 -262 -152 -275 -160 -8 -6 -21 -13 -29 -17 -8 -3 -64 -36 -125 -71
-61 -36 -126 -72 -143 -81 -18 -8 -33 -19 -33 -24 0 -4 -4 -5 -10 -2 -5 3 -10
2 -10 -4 0 -5 -10 -13 -22 -17 -13 -4 -25 -9 -28 -13 -3 -3 -23 -16 -45 -28
-247 -139 -364 -210 -362 -217 3 -10 324 -196 337 -196 5 0 10 -3 12 -8 3 -7
230 -139 290 -169 24 -13 31 -12 67 12 22 14 45 25 50 25 5 0 14 7 21 15 7 9
15 13 18 10 3 -3 12 1 21 9 9 7 81 51 161 96 80 46 159 91 175 101 17 11 39
23 50 29 11 5 41 22 67 37 61 36 222 129 273 158 22 12 105 60 185 107 80 47
152 88 160 91 8 4 29 16 45 27 17 11 37 23 45 27 46 22 167 98 181 115 16 17
20 74 20 288 0 14 0 72 0 130 0 58 0 110 0 115 -1 107 -8 145 -31 165 -33 29
-68 25 -136 -16z"/>
<path d="M8236 6527 c-85 -52 -123 -75 -136 -80 -8 -4 -31 -17 -50 -28 -19
-12 -141 -82 -270 -156 -129 -75 -239 -139 -245 -143 -5 -4 -32 -20 -60 -35
-27 -16 -68 -39 -90 -52 -22 -13 -52 -29 -67 -35 -16 -7 -28 -16 -28 -20 0 -4
-4 -8 -10 -8 -5 0 -39 -18 -75 -40 -36 -22 -70 -40 -75 -40 -6 0 -10 -4 -10
-8 0 -4 -12 -13 -27 -19 -133 -58 -176 -125 -114 -181 16 -15 51 -39 77 -53
27 -14 90 -50 139 -79 91 -53 108 -63 250 -144 44 -25 90 -46 102 -46 13 0 52
18 88 40 36 22 67 40 69 40 2 0 131 74 287 164 l284 165 0 385 c1 263 -2 386
-10 385 -5 0 -19 -6 -29 -12z"/>
<path d="M580 6471 c-14 -11 -26 -25 -26 -30 -1 -6 -3 -12 -4 -13 -2 -2 -4
-142 -5 -313 -3 -301 -2 -311 18 -342 12 -18 28 -34 37 -37 26 -9 123 -66 142
-83 10 -9 18 -13 18 -10 0 3 41 -19 90 -49 50 -30 92 -54 94 -54 2 0 34 -18
70 -40 36 -22 70 -40 76 -40 5 0 10 -4 10 -9 0 -5 11 -12 25 -15 14 -4 25 -11
25 -16 0 -6 5 -10 11 -10 6 0 65 -33 132 -72 162 -96 157 -93 293 -171 65 -37
128 -73 139 -80 54 -32 65 -37 69 -35 2 2 12 -4 22 -13 11 -9 54 -35 96 -59
43 -23 80 -46 84 -51 3 -5 14 -9 24 -9 10 0 20 -4 22 -8 3 -7 29 -23 148 -90
19 -10 98 -56 174 -101 76 -44 140 -81 142 -81 2 0 33 -18 69 -40 36 -22 67
-40 69 -40 3 0 41 -22 86 -50 45 -27 83 -50 86 -50 2 0 38 -20 78 -45 41 -25
77 -45 81 -45 3 0 22 -11 43 -24 39 -26 443 -260 525 -305 72 -39 106 -73 125
-127 16 -43 18 -89 17 -374 -1 -285 -4 -329 -19 -361 -33 -70 -106 -114 -184
-111 -35 1 -132 41 -132 54 0 5 -5 8 -10 8 -6 0 -27 10 -48 23 -20 13 -62 37
-92 54 -30 17 -149 85 -263 152 -115 66 -213 121 -218 121 -5 0 -9 5 -9 10 0
6 -4 10 -9 10 -6 0 -76 39 -158 86 -81 47 -166 96 -188 109 -22 12 -58 33 -80
45 -22 13 -51 30 -65 37 -14 8 -38 23 -55 33 -16 10 -52 31 -80 45 -27 15 -58
35 -69 44 -10 9 -21 16 -25 15 -3 -1 -15 4 -26 11 -27 17 -200 116 -255 147
-101 57 -387 221 -410 236 -14 9 -27 17 -30 17 -5 0 -53 28 -215 123 -33 19
-92 53 -132 74 -70 38 -73 38 -102 23 -17 -8 -35 -24 -41 -34 -6 -12 -9 -138
-7 -345 2 -321 2 -325 24 -345 12 -12 25 -21 28 -21 3 0 35 -18 71 -40 36 -22
68 -40 70 -40 3 0 21 -11 42 -23 40 -26 115 -68 270 -153 58 -32 182 -102 202
-114 8 -5 87 -51 175 -101 88 -51 172 -101 188 -111 15 -11 27 -16 27 -11 0 4
4 3 8 -3 6 -9 52 -36 262 -157 19 -11 49 -28 65 -38 17 -10 46 -26 65 -36 19
-9 37 -19 40 -22 7 -8 41 -29 60 -38 8 -4 48 -26 88 -50 40 -24 74 -43 77 -43
2 0 40 -22 85 -50 45 -27 83 -50 85 -50 4 0 110 -60 150 -85 11 -7 24 -12 29
-13 5 0 12 -4 15 -9 3 -5 69 -44 145 -88 77 -44 160 -92 185 -107 25 -15 71
-41 101 -58 30 -16 78 -43 105 -60 28 -17 57 -33 65 -37 8 -4 17 -9 20 -12 3
-3 25 -17 50 -30 56 -29 86 -60 108 -109 15 -33 17 -77 16 -357 -1 -176 -5
-336 -8 -355 -16 -78 -97 -139 -186 -140 -44 0 -80 15 -219 96 -20 12 -112 65
-206 119 -93 53 -181 104 -195 113 -14 9 -28 15 -32 14 -5 -1 -8 3 -8 8 0 6
-4 10 -10 10 -5 0 -39 18 -75 40 -36 22 -67 40 -69 40 -2 0 -43 24 -92 53 -49
29 -96 56 -104 60 -8 5 -24 13 -35 20 -11 7 -67 39 -125 72 -58 33 -106 63
-108 67 -2 4 -7 8 -12 8 -4 0 -94 50 -199 110 -105 61 -195 110 -200 110 -5 0
-11 4 -13 8 -3 7 -204 125 -280 165 -21 10 -38 23 -38 28 0 5 -8 9 -18 9 -10
0 -22 4 -28 9 -5 5 -108 66 -229 136 -212 122 -287 166 -330 192 -11 6 -33 19
-50 27 -32 16 -106 59 -142 82 -36 23 -73 17 -103 -16 l-27 -30 1 -319 1 -319
24 -26 c14 -14 28 -26 33 -26 5 0 14 -5 21 -11 11 -9 327 -193 467 -271 30
-17 72 -42 92 -55 21 -12 40 -23 43 -23 3 0 31 -16 61 -35 30 -19 56 -35 58
-35 2 0 50 -27 105 -60 56 -33 106 -60 111 -60 6 0 10 -4 10 -10 0 -5 6 -10
13 -10 7 0 28 -11 47 -23 19 -13 60 -37 90 -54 30 -17 96 -54 145 -83 50 -29
110 -64 135 -78 25 -13 50 -28 55 -32 6 -5 37 -23 70 -40 33 -18 65 -37 72
-42 7 -5 27 -17 45 -27 18 -10 49 -27 68 -38 215 -125 264 -153 271 -153 5 0
9 -5 9 -11 0 -5 4 -8 9 -4 5 3 12 1 15 -4 3 -5 87 -55 186 -111 99 -56 183
-106 186 -111 3 -5 14 -9 25 -9 10 0 19 -4 19 -9 0 -5 21 -19 48 -33 26 -13
119 -66 207 -118 165 -96 179 -104 280 -161 33 -18 62 -37 63 -41 2 -4 8 -8
12 -8 8 0 212 -115 250 -140 8 -6 22 -13 30 -17 8 -3 39 -21 68 -40 29 -18 55
-33 58 -33 3 0 55 -29 115 -65 106 -63 139 -76 139 -55 0 6 6 10 14 10 29 0
43 43 45 135 2 105 2 302 2 750 0 11 -1 101 -1 200 -1 99 -1 185 0 190 2 6 1
15 0 20 -2 8 -1 87 0 145 1 8 0 44 -1 80 0 36 0 70 1 75 1 6 1 15 0 20 -2 8
-1 95 0 145 1 8 1 62 1 120 -1 58 -1 114 0 125 0 11 0 119 0 240 0 121 0 229
0 240 0 451 0 476 -2 600 0 55 0 105 1 110 1 6 1 15 0 20 -2 8 -1 87 0 145 1
8 0 44 -1 80 0 36 0 70 1 75 1 6 1 15 0 20 -2 8 -1 95 0 145 1 8 1 62 1 120
-1 58 -1 116 -1 130 1 28 1 229 1 245 -1 84 -9 145 -21 156 -18 17 -97 69
-105 69 -3 0 -29 15 -58 33 -29 18 -60 36 -69 40 -10 3 -42 21 -70 39 -29 18
-71 42 -93 53 -22 11 -42 22 -45 26 -7 7 -109 69 -115 69 -3 0 -35 18 -71 40
-36 22 -68 40 -70 40 -2 0 -25 13 -51 29 -103 62 -248 145 -253 146 -3 0 -16
8 -30 16 -34 21 -168 99 -205 120 -17 9 -93 53 -169 98 -76 44 -140 81 -142
81 -2 0 -44 25 -94 55 -50 30 -93 55 -96 55 -2 0 -21 11 -42 23 -20 13 -57 35
-82 49 -25 14 -96 55 -158 92 -62 36 -115 66 -117 66 -2 0 -37 20 -77 44 -126
76 -162 97 -180 103 -10 3 -18 9 -18 14 0 5 -4 9 -9 9 -7 0 -412 231 -796 454
-307 179 -426 246 -434 246 -5 0 -11 5 -13 10 -7 21 -72 22 -98 1z"/>
<path d="M3586 5651 c-3 -5 -23 -18 -43 -29 -55 -28 -116 -63 -128 -72 -5 -4
-30 -19 -55 -32 -25 -14 -90 -52 -145 -84 -55 -31 -109 -63 -120 -69 -96 -53
-135 -79 -128 -85 9 -9 433 -256 563 -328 25 -14 54 -31 65 -38 11 -8 25 -14
31 -14 6 0 74 36 150 80 75 45 160 93 188 108 28 15 53 29 56 32 3 3 16 11 30
19 14 8 46 26 71 40 72 41 89 56 98 88 15 51 0 68 -129 141 -47 27 -102 58
-122 70 -57 33 -93 54 -209 121 -101 58 -159 75 -173 52z"/>
<path d="M6600 5579 c-74 -44 -142 -82 -150 -86 -8 -4 -31 -16 -50 -28 -19
-12 -55 -33 -80 -47 -25 -14 -160 -92 -300 -173 -140 -81 -270 -156 -287 -166
-18 -11 -48 -27 -65 -38 -18 -10 -78 -45 -133 -76 -136 -78 -152 -87 -213
-124 -29 -17 -57 -31 -62 -31 -6 0 -10 -4 -10 -9 0 -5 -9 -13 -21 -16 -28 -9
-142 -77 -151 -90 -4 -5 -8 -6 -8 -2 0 5 -12 0 -28 -10 -36 -24 -286 -169
-479 -279 -29 -16 -64 -40 -76 -52 l-22 -22 0 -2132 c0 -2047 1 -2133 18
-2155 10 -13 24 -23 32 -23 7 0 15 -6 18 -12 4 -15 28 -5 115 49 29 18 54 33
56 33 3 0 39 20 80 45 42 25 78 45 80 45 2 0 45 25 95 55 51 30 95 55 98 55 3
0 21 11 40 26 18 14 33 21 33 17 0 -4 4 -3 8 2 7 10 65 46 117 71 17 8 44 23
60 34 17 10 64 38 105 62 41 23 83 47 92 53 9 5 29 17 45 26 15 8 120 69 233
134 113 65 221 127 240 138 19 11 49 28 65 39 17 10 38 21 48 24 9 4 17 10 17
15 0 5 5 9 10 9 9 0 102 51 195 107 11 7 27 15 35 19 8 4 38 21 65 38 28 17
61 37 75 44 14 7 43 24 65 37 22 14 47 28 55 32 8 4 70 40 138 80 68 40 127
73 132 73 5 0 10 3 12 8 2 4 19 16 38 26 72 39 475 271 480 276 6 6 84 49 117
65 13 5 23 13 23 18 0 4 4 7 10 7 5 0 33 14 62 31 29 18 68 41 87 51 100 57
507 292 511 295 3 3 5 599 5 1326 1 1310 0 1347 -29 1347 -3 0 -66 36 -142 80
-75 44 -138 80 -140 80 -2 0 -33 18 -69 40 -36 22 -68 40 -71 40 -2 0 -17 8
-32 19 -15 10 -90 54 -167 98 -77 44 -205 118 -285 163 -80 46 -154 88 -165
94 -11 6 -22 13 -25 16 -3 3 -19 12 -35 21 -17 9 -70 40 -120 69 -49 29 -103
60 -120 69 -16 9 -32 18 -35 21 -16 16 -53 30 -77 29 -16 0 -86 -34 -163 -80z
m219 -723 c13 -3 35 -13 50 -23 14 -10 28 -18 31 -18 3 0 37 -19 75 -42 63
-36 143 -83 230 -133 17 -9 54 -31 83 -49 29 -17 57 -31 62 -31 6 0 10 -4 10
-8 0 -4 12 -13 28 -19 27 -12 81 -42 116 -65 39 -25 76 -69 82 -96 3 -15 9
-39 14 -53 4 -14 4 -32 0 -39 -5 -7 -6 -19 -3 -25 6 -18 9 -115 3 -115 -5 0
-4 -72 2 -188 2 -28 1 -52 -2 -52 -3 0 -4 -30 -3 -67 4 -123 4 -138 1 -181 -2
-23 0 -42 4 -42 3 0 4 -8 2 -17 -7 -31 -9 -143 -2 -143 3 0 4 -8 2 -17 -7 -31
-9 -143 -2 -143 3 0 4 -8 2 -17 -7 -31 -9 -143 -2 -143 3 0 4 -8 2 -17 -7 -31
-9 -143 -2 -143 3 0 4 -8 2 -17 -7 -31 -9 -143 -2 -143 3 0 4 -8 2 -17 -7 -29
-10 -143 -3 -143 3 0 2 -25 -1 -55 -6 -56 -15 -69 -70 -97 -14 -6 -33 -19 -42
-27 -10 -8 -18 -10 -18 -5 0 5 -4 4 -8 -2 -4 -6 -32 -24 -62 -41 -112 -62
-225 -127 -230 -133 -3 -3 -23 -15 -45 -27 -22 -11 -56 -30 -75 -42 -19 -11
-73 -42 -120 -68 -47 -26 -86 -50 -88 -55 -2 -4 -7 -8 -12 -8 -12 0 -224 -122
-232 -134 -4 -6 -8 -8 -8 -4 0 4 -25 -8 -55 -27 -30 -19 -59 -35 -65 -35 -5 0
-10 -4 -10 -10 0 -5 -5 -10 -11 -10 -6 0 -48 -23 -95 -50 -47 -28 -89 -50 -94
-50 -6 0 -10 -4 -10 -9 0 -5 -10 -13 -22 -17 -13 -4 -47 -22 -76 -40 -29 -19
-54 -34 -56 -34 -3 0 -40 -21 -83 -47 -43 -25 -103 -60 -133 -76 -30 -17 -67
-38 -82 -49 -14 -10 -29 -18 -32 -18 -4 0 -23 -11 -44 -23 -20 -13 -57 -35
-82 -49 -25 -14 -91 -52 -147 -85 -87 -51 -110 -60 -156 -62 -80 -3 -144 35
-178 107 -14 29 -16 166 -15 1285 1 1371 -3 1279 58 1333 20 18 194 124 203
124 2 0 43 24 92 53 48 30 108 64 133 77 25 14 52 30 60 36 8 6 40 25 70 41
58 32 73 40 213 122 49 28 93 51 98 51 5 0 9 5 9 10 0 6 4 10 8 10 7 0 88 45
200 111 15 9 47 27 72 41 25 14 84 48 132 77 48 28 91 51 97 51 5 0 11 3 13 8
4 10 85 53 115 61 27 7 60 6 102 -3z"/>
<path d="M6843 4656 l-28 -24 -1 -809 c-1 -444 -2 -813 -3 -819 -1 -15 -38
-38 -401 -247 -168 -96 -442 -254 -610 -351 -168 -96 -310 -180 -317 -186 -7
-5 -15 -10 -18 -10 -18 0 -197 -114 -206 -132 -7 -14 -11 -126 -11 -341 l-1
-321 33 -27 c41 -35 66 -30 165 30 17 10 73 43 125 73 143 82 145 83 150 88 3
3 21 13 40 24 19 10 50 27 68 37 17 11 47 27 65 38 17 10 104 60 192 111 192
111 217 126 275 158 25 14 57 33 72 43 14 11 29 19 32 19 3 0 46 25 97 55 50
30 93 55 95 55 2 0 38 20 80 45 41 25 80 45 85 45 5 0 9 4 9 8 0 4 12 13 28
19 15 7 45 23 67 36 65 40 261 153 276 160 8 4 28 16 44 26 17 11 50 30 75 42
25 13 50 27 55 32 6 4 34 22 63 38 30 17 52 37 53 47 0 9 1 396 1 859 1 743
-1 844 -14 865 -15 23 -355 228 -377 228 -6 0 -11 3 -11 8 0 4 -21 18 -47 32
-27 13 -65 35 -85 47 -48 29 -80 29 -115 -1z"/>
<path d="M1465 5077 c-16 -5 -37 -15 -45 -22 -8 -6 -42 -27 -75 -45 -33 -18
-93 -53 -132 -77 -40 -23 -74 -43 -77 -43 -2 0 -45 -25 -95 -55 -51 -30 -96
-55 -100 -55 -20 0 -46 -59 -42 -98 1 -17 44 -52 99 -82 26 -14 79 -44 119
-68 39 -23 76 -42 82 -42 6 0 11 -4 11 -9 0 -5 9 -13 20 -16 11 -4 49 -24 85
-46 36 -21 69 -39 75 -39 5 0 10 -4 10 -10 0 -5 4 -10 9 -10 5 0 80 -40 166
-90 86 -49 161 -90 166 -90 5 0 9 -4 9 -10 0 -5 4 -10 10 -10 5 0 47 -22 92
-49 157 -92 173 -102 208 -119 19 -9 37 -19 40 -22 10 -12 361 -210 370 -210
6 0 10 -4 10 -10 0 -5 5 -10 11 -10 6 0 23 -8 37 -19 15 -10 50 -31 77 -45 28
-15 57 -31 65 -37 20 -12 234 -136 290 -167 25 -13 50 -28 55 -32 6 -4 33 -20
60 -35 62 -35 90 -51 137 -78 78 -47 193 -112 203 -116 6 -2 17 -9 25 -16 40
-34 102 -19 127 30 5 12 9 153 8 337 -1 360 5 335 -89 386 -28 16 -111 63
-183 105 -73 42 -137 77 -142 77 -5 0 -11 4 -13 8 -1 4 -34 25 -73 47 -38 21
-73 43 -77 49 -4 6 -8 7 -8 3 0 -4 -25 8 -55 28 -31 19 -57 35 -59 35 -4 0
-198 112 -226 130 -8 6 -27 15 -42 21 -16 6 -28 15 -28 20 0 5 -4 9 -9 9 -8 0
-151 80 -161 90 -3 3 -23 14 -45 26 -22 12 -128 72 -235 134 -107 62 -215 124
-240 138 -25 14 -117 66 -205 116 -88 51 -167 94 -175 98 -8 3 -28 1 -45 -5z"/>
<path d="M1220 3380 c-25 -16 -50 -30 -57 -30 -6 0 -13 -3 -15 -8 -1 -4 -95
-60 -208 -125 -255 -146 -254 -145 -253 -191 1 -48 10 -56 106 -113 45 -26
100 -58 122 -71 22 -12 48 -25 58 -29 9 -3 17 -9 17 -14 0 -5 4 -9 8 -9 10 0
211 -114 230 -130 6 -6 12 -8 12 -4 0 4 8 0 18 -8 16 -13 36 -26 147 -88 22
-13 58 -33 80 -45 108 -61 441 -255 450 -262 6 -4 28 -18 50 -30 67 -35 106
-58 197 -112 48 -28 91 -51 97 -51 6 0 11 -3 11 -7 0 -5 10 -13 23 -19 18 -8
252 -143 375 -215 15 -9 45 -26 67 -39 22 -12 70 -40 107 -61 36 -22 71 -39
77 -39 6 0 11 -4 11 -8 0 -4 25 -21 55 -37 74 -40 98 -54 175 -99 36 -21 81
-48 100 -58 19 -11 65 -38 102 -59 95 -56 109 -60 146 -42 17 8 35 27 39 41 5
15 9 167 8 339 -1 286 -2 313 -19 332 -15 17 -51 39 -231 143 -16 10 -46 25
-65 35 -19 9 -37 20 -40 23 -3 3 -52 33 -109 65 -114 65 -134 77 -201 116 -25
15 -62 36 -82 48 -47 26 -64 36 -273 156 -93 54 -174 101 -180 105 -5 4 -30
19 -55 32 -25 14 -74 43 -110 63 -36 21 -83 48 -105 60 -22 12 -96 55 -165 95
-68 40 -139 81 -157 91 -66 38 -99 57 -151 88 -29 17 -57 31 -62 31 -6 0 -10
5 -10 10 0 6 -4 10 -10 10 -5 0 -44 21 -87 46 -118 70 -181 104 -190 103 -4 0
-28 -13 -53 -29z"/>
</g>
</svg>
